<svg xmlns="http://www.w3.org/2000/svg" xmlns:xlink="http://www.w3.org/1999/xlink" fill="none" version="1.1" width="594.3422241210938" height="247" viewBox="0 0 594.3422241210938 247"><defs><filter id="master_svg0_3_0533" filterUnits="objectBoundingBox" color-interpolation-filters="sRGB" x="-64" y="-56" width="600" height="247"><feFlood flood-opacity="0" result="BackgroundImageFix"/><feColorMatrix in="SourceAlpha" type="matrix" values="0 0 0 0 0 0 0 0 0 0 0 0 0 0 0 0 0 0 127 0"/><feOffset dy="8" dx="0"/><feGaussianBlur stdDeviation="16"/><feColorMatrix type="matrix" values="0 0 0 0 0 0 0 0 0 0 0 0 0 0 0 0 0 0 0.1599999964237213 0"/><feBlend mode="normal" in2="BackgroundImageFix" result="effect1_dropShadow"/><feBlend mode="normal" in="SourceGraphic" in2="effect1_dropShadow" result="shape"/></filter><linearGradient x1="-0.008280978538095951" y1="-0.03321302309632301" x2="0.5763596296310425" y2="0.8577250838279724" id="master_svg1_3_0940"><stop offset="0%" stop-color="#41D1FF" stop-opacity="1"/><stop offset="100%" stop-color="#BD34FE" stop-opacity="1"/></linearGradient><linearGradient x1="0.27985814213752747" y1="0.022417979314923286" x2="0.5104981064796448" y2="0.8902990221977234" id="master_svg2_3_0941"><stop offset="0%" stop-color="#FFEA83" stop-opacity="1"/><stop offset="8.333329856395721%" stop-color="#FFDD35" stop-opacity="1"/><stop offset="100%" stop-color="#FFA800" stop-opacity="1"/></linearGradient></defs><g style="mix-blend-mode:passthrough"><g style="mix-blend-mode:passthrough" filter="url(#master_svg0_3_0533)"><path d="M64.30837443115234,162.555C62.71604443115234,168.872,67.49112443115234,175,74.00500443115234,175L495.37910443115237,175C499.96010443115233,175,503.95610443115237,171.887,505.0761044311523,167.445L530.0341044311524,68.4445C531.6261044311523,62.128280000000004,526.8511044311524,56,520.3371044311523,56L98.96300443115234,56C94.38170443115234,56,90.38630443115234,59.11316,89.26640443115235,63.55548L64.30837443115234,162.555Z" fill="#1E1E1E" fill-opacity="1"/></g><g style="mix-blend-mode:passthrough"><path d="M271.31170443115235,119L239.34298443115233,119L239.34298443115233,110.3438L271.31170443115235,110.3438L271.31170443115235,119ZM299.24920443115235,78Q301.24920443115235,78,302.79610443115234,78.85938Q304.34300443115234,79.71875,305.23360443115234,81.1875Q306.12420443115235,82.6562,306.12420443115235,84.4844Q306.12420443115235,86.2969,305.23360443115234,87.7969Q304.34300443115234,89.2812,302.76490443115233,90.1406Q301.20230443115236,91,299.24920443115235,91Q297.26490443115233,91,295.67110443115234,90.1406Q294.07730443115236,89.2812,293.18670443115235,87.7969Q292.31170443115235,86.2969,292.31170443115235,84.4844Q292.31170443115235,82.6562,293.18670443115235,81.1875Q294.07730443115236,79.71875,295.67110443115234,78.85938Q297.26490443115233,78,299.24920443115235,78ZM283.88990443115233,98L306.29610443115234,98L306.29610443115234,129.3438L316.28050443115234,129.3438L316.28050443115234,138L283.51490443115233,138L283.51490443115233,129.3438L294.63990443115233,129.3438L294.63990443115233,106.6562L283.88990443115233,106.6562L283.88990443115233,98ZM351.29610443115234,81.3438Q358.93710443115236,81.3438,364.73310443115236,83.8906L361.5301044311524,91.4531Q357.60910443115233,90,353.10910443115233,90Q349.64010443115234,90,348.14010443115234,91.2188Q346.6551044311523,92.4375,346.6551044311523,95.2656L346.6551044311523,100.3438L359.42110443115234,100.3438L358.1241044311523,109L346.6551044311523,109L346.6551044311523,137.9844L335.06210443115236,137.9844L335.06210443115236,109L326.82730443115236,109L326.82730443115236,100.3438L335.06210443115236,100.3438L335.06210443115236,94.7344Q335.06210443115236,90.875,336.92110443115234,87.8438Q338.7801044311523,84.7969,342.45210443115235,83.0781Q346.1241044311523,81.3438,351.29610443115234,81.3438ZM392.64010443115234,81.2812L404.3121044311523,82.5156L404.3121044311523,137.7656L393.96810443115237,137.7656L393.3741044311523,133.4062Q391.60910443115233,135.9219,388.8741044311523,137.4688Q386.14010443115234,139,382.5301044311524,139Q377.76510443115234,139,374.5301044311524,136.4219Q371.29610443115234,133.8438,369.70210443115235,129.1094Q368.1241044311523,124.375,368.1241044311523,117.9062Q368.1241044311523,111.8594,370.01510443115234,107.1094Q371.92110443115234,102.3438,375.45210443115235,99.6719Q378.98310443115236,97,383.7491044311523,97Q389.0301044311524,97,392.64010443115234,100.6719L392.64010443115234,81.2812ZM386.8741044311523,105.6562Q383.70210443115235,105.6562,381.92110443115234,108.6406Q380.1551044311524,111.6094,380.1551044311524,118Q380.1551044311524,124.8438,381.71810443115237,127.5938Q383.29610443115234,130.3438,386.21810443115237,130.3438Q389.9051044311524,130.3438,392.64010443115234,125.8125L392.64010443115234,108.9531Q391.34310443115237,107.3281,389.98310443115236,106.5Q388.6241044311523,105.6562,386.8741044311523,105.6562ZM424.45210443115235,121Q425.01510443115234,125.8125,427.48310443115236,128.0781Q429.95210443115235,130.3438,433.8741044311523,130.3438Q438.85910443115233,130.3438,443.92110443115234,127L448.60910443115233,133.5781Q445.6871044311523,136.1094,441.71810443115237,137.5625Q437.7491044311523,139,432.95210443115235,139Q426.3741044311523,139,421.79610443115234,136.375Q417.21810443115237,133.7344,414.89010443115234,129Q412.5621044311523,124.25,412.5621044311523,118.0625Q412.5621044311523,112.1562,414.8121044311523,107.3594Q417.07710443115235,102.5625,421.39010443115234,99.7812Q425.71810443115237,97,431.6871044311523,97Q437.26510443115234,97,441.42110443115234,99.375Q445.57710443115235,101.7344,447.82710443115235,106.2344Q450.07710443115235,110.7188,450.07710443115235,116.875Q450.07710443115235,119.25,449.85910443115233,121L424.45210443115235,121ZM431.6871044311523,105Q428.48310443115236,105,426.57710443115235,107.2188Q424.67110443115234,109.4219,424.3121044311523,114L438.70210443115235,114Q438.59310443115237,105,431.6871044311523,105ZM483.29610443115234,81.3438Q490.93710443115236,81.3438,496.73310443115236,83.8906L493.5301044311523,91.4531Q489.60910443115233,90,485.10910443115233,90Q481.64010443115234,90,480.14010443115234,91.2188Q478.6551044311524,92.4375,478.6551044311524,95.2656L478.6551044311524,100.3438L491.42110443115234,100.3438L490.1241044311523,109L478.6551044311524,109L478.6551044311524,137.9844L467.0621044311523,137.9844L467.0621044311523,109L458.82710443115235,109L458.82710443115235,100.3438L467.0621044311523,100.3438L467.0621044311523,94.7344Q467.0621044311523,90.875,468.92110443115234,87.8438Q470.7801044311524,84.7969,474.45210443115235,83.0781Q478.1241044311523,81.3438,483.29610443115234,81.3438Z" fill="#FFFFFF" fill-opacity="1"/></g><g style="mix-blend-mode:passthrough"><g><path d="M226.93280443115236,90.50868354492188L193.11080443115236,150.0732335449219C192.41250443115234,151.30303354492187,190.61850443115236,151.3103335449219,189.90970443115233,150.08653354492188L155.41703843115235,90.51442354492187C154.64485343115234,89.18078354492188,155.80277843115235,87.56538354492187,157.33726443115233,87.83550744492187L191.19550443115236,93.79590354492187C191.41150443115234,93.83392354492187,191.63260443115234,93.83356354492187,191.84860443115235,93.79480354492188L224.99870443115236,87.84405294492187C226.52810443115234,87.56952954492188,227.69150443115234,89.17242354492187,226.93280443115236,90.50868354492188Z" fill="url(#master_svg1_3_0940)" fill-opacity="1"/></g><g><path d="M207.3239846862793,80.0174796L182.2946746862793,84.84767C181.8832946862793,84.92705,181.57871468627928,85.27041,181.5538946862793,85.68246L180.0142423362793,111.2925C179.9780291862793,111.8957,180.5405096862793,112.3639,181.1382846862793,112.2281L188.1067946862793,110.6442C188.7587946862793,110.4961,189.3479346862793,111.0617,189.21392468627928,111.7074L187.1435946862793,121.69210000000001C187.0042646862793,122.36410000000001,187.6448646862793,122.9387,188.3112046862793,122.7394L192.6152846862793,121.45150000000001C193.2825846862793,121.25200000000001,193.9236846862793,121.8283,193.7824846862793,122.5008L190.4923846862793,138.1845C190.2864846862793,139.1655,191.6114846862793,139.7005,192.1639846862793,138.8594L192.5330846862793,138.2977L212.9283846862793,98.2112C213.26988468627928,97.53999999999999,212.6809846862793,96.7747,211.93248468627928,96.9169L204.7595846862793,98.2803C204.0854846862793,98.4083,203.5119846862793,97.7901,203.70218468627928,97.1406L208.3838846862793,81.15665C208.5742846862793,80.506049,207.9987846862793,79.887275,207.3239846862793,80.0174796Z" fill="url(#master_svg2_3_0941)" fill-opacity="1"/></g></g><g style="mix-blend-mode:passthrough"><path d="M146.93670443115235,105L141.43670443115235,105L139.57730443115236,119L144.20230443115236,119L144.20230443115236,127L138.54610443115234,127L137.13990443115233,137.9844L127.51490443115235,137.9844L128.90550443115234,127L121.88990443115235,127L120.49920443115235,137.9844L110.85860443115234,137.9844L112.18672443115234,127L107.79610443115234,127L107.79610443115234,119L113.21798443115235,119L115.13985443115234,105L110.53048443115235,105L110.53048443115235,97L116.17110443115234,97L117.49920443115235,86L127.21800443115234,86L125.78050443115234,97L132.82730443115236,97L134.23360443115234,86L143.87420443115235,86L142.46800443115234,97L146.93670443115235,97L146.93670443115235,105ZM124.78050443115234,105L122.85860443115234,119L129.87420443115235,119L131.79610443115234,105L124.78050443115234,105Z" fill="#FFFFFF" fill-opacity="0.5"/></g></g></svg>